<svg viewBox="0 0 64 64" fill="none" xmlns="http://www.w3.org/2000/svg">
  <path d="M30 8C30 8 31 2 34 2C37 2 35 8 35 8" stroke="#4ade80" stroke-width="2.5" stroke-linecap="round" fill="none"/>
  <path d="M34 5C37 3 41 4 40 7C39 10 35 8 34 5Z" fill="#4ade80"/>
  <ellipse cx="22" cy="36" rx="14" ry="20" fill="#f97316" opacity="0.85"/>
  <ellipse cx="32" cy="36" rx="13" ry="22" fill="#f97316"/>
  <ellipse cx="42" cy="36" rx="14" ry="20" fill="#f97316" opacity="0.85"/>
  <ellipse cx="24" cy="28" rx="4" ry="8" fill="white" opacity="0.15"/>
  <circle cx="26" cy="34" r="2.5" fill="white" opacity="0.9"/>
  <circle cx="38" cy="34" r="2.5" fill="white" opacity="0.9"/>
  <circle cx="26.5" cy="34.5" r="1" fill="#1c1917"/>
  <circle cx="38.5" cy="34.5" r="1" fill="#1c1917"/>
  <path d="M28 41C30 44 34 44 36 41" stroke="white" stroke-width="1.5" stroke-linecap="round" fill="none" opacity="0.9"/>
</svg>